M48
;DRILL file {Pcbnew (2013-mar-13)-testing} date Fri 14 Jun 2013 17:35:17 WST
;FORMAT={-:-/ absolute / metric / decimal}
FMAT,2
METRIC,TZ
T1C2.500
%
G90
G05
M71
T1
X102.Y-102.
X102.Y-108.
X102.Y-115.
X102.Y-121.
X102.Y-127.
X112.Y-103.
X112.Y-109.
X112.Y-116.
X112.Y-124.
X112.Y-130.
X122.Y-135.
X122.Y-139.
X122.Y-146.
X132.Y-131.
X132.Y-140.
X132.Y-144.
X142.Y-132.
X142.Y-138.
X142.Y-143.
X142.Y-147.
T0
M30
