G04 (created by PCBNEW (2013-mar-13)-testing) date Mon 01 Jul 2013 17:25:34 WST*
%MOIN*%
G04 Gerber Fmt 3.4, Leading zero omitted, Abs format*
%FSLAX34Y34*%
G01*
G70*
G90*
G04 APERTURE LIST*
%ADD10C,0.006000*%
%ADD11C,0.011811*%
G04 APERTURE END LIST*
G54D10*
G54D11*
X56960Y-52474D02*
X57353Y-52474D01*
X56735Y-52334D02*
X57156Y-52193D01*
X57156Y-52559D01*
X53416Y-54218D02*
X53416Y-54330D01*
X53388Y-54386D01*
X53360Y-54415D01*
X53276Y-54471D01*
X53163Y-54499D01*
X52938Y-54499D01*
X52882Y-54471D01*
X52854Y-54443D01*
X52826Y-54386D01*
X52826Y-54274D01*
X52854Y-54218D01*
X52882Y-54190D01*
X52938Y-54161D01*
X53079Y-54161D01*
X53135Y-54190D01*
X53163Y-54218D01*
X53191Y-54274D01*
X53191Y-54386D01*
X53163Y-54443D01*
X53135Y-54471D01*
X53079Y-54499D01*
X52826Y-52109D02*
X52826Y-51827D01*
X53107Y-51799D01*
X53079Y-51827D01*
X53051Y-51884D01*
X53051Y-52024D01*
X53079Y-52080D01*
X53107Y-52109D01*
X53163Y-52137D01*
X53304Y-52137D01*
X53360Y-52109D01*
X53388Y-52080D01*
X53416Y-52024D01*
X53416Y-51884D01*
X53388Y-51827D01*
X53360Y-51799D01*
X48889Y-52559D02*
X48889Y-52924D01*
X49114Y-52727D01*
X49114Y-52812D01*
X49142Y-52868D01*
X49170Y-52896D01*
X49226Y-52924D01*
X49367Y-52924D01*
X49423Y-52896D01*
X49451Y-52868D01*
X49479Y-52812D01*
X49479Y-52643D01*
X49451Y-52587D01*
X49423Y-52559D01*
X48889Y-54921D02*
X48889Y-55314D01*
X49479Y-55061D01*
X56763Y-55624D02*
X56763Y-55511D01*
X56791Y-55455D01*
X56819Y-55427D01*
X56903Y-55371D01*
X57016Y-55343D01*
X57241Y-55343D01*
X57297Y-55371D01*
X57325Y-55399D01*
X57353Y-55455D01*
X57353Y-55568D01*
X57325Y-55624D01*
X57297Y-55652D01*
X57241Y-55680D01*
X57100Y-55680D01*
X57044Y-55652D01*
X57016Y-55624D01*
X56988Y-55568D01*
X56988Y-55455D01*
X57016Y-55399D01*
X57044Y-55371D01*
X57100Y-55343D01*
X57016Y-50731D02*
X56988Y-50674D01*
X56960Y-50646D01*
X56903Y-50618D01*
X56875Y-50618D01*
X56819Y-50646D01*
X56791Y-50674D01*
X56763Y-50731D01*
X56763Y-50843D01*
X56791Y-50899D01*
X56819Y-50928D01*
X56875Y-50956D01*
X56903Y-50956D01*
X56960Y-50928D01*
X56988Y-50899D01*
X57016Y-50843D01*
X57016Y-50731D01*
X57044Y-50674D01*
X57072Y-50646D01*
X57128Y-50618D01*
X57241Y-50618D01*
X57297Y-50646D01*
X57325Y-50674D01*
X57353Y-50731D01*
X57353Y-50843D01*
X57325Y-50899D01*
X57297Y-50928D01*
X57241Y-50956D01*
X57128Y-50956D01*
X57072Y-50928D01*
X57044Y-50899D01*
X57016Y-50843D01*
X56819Y-56917D02*
X56791Y-56946D01*
X56763Y-57002D01*
X56763Y-57142D01*
X56791Y-57199D01*
X56819Y-57227D01*
X56875Y-57255D01*
X56931Y-57255D01*
X57016Y-57227D01*
X57353Y-56889D01*
X57353Y-57255D01*
X41015Y-47047D02*
X41015Y-47440D01*
X41605Y-47187D01*
X41015Y-44685D02*
X41015Y-45050D01*
X41240Y-44853D01*
X41240Y-44938D01*
X41268Y-44994D01*
X41296Y-45022D01*
X41352Y-45050D01*
X41493Y-45050D01*
X41549Y-45022D01*
X41577Y-44994D01*
X41605Y-44938D01*
X41605Y-44769D01*
X41577Y-44713D01*
X41549Y-44685D01*
X44952Y-47750D02*
X44952Y-47637D01*
X44980Y-47581D01*
X45008Y-47553D01*
X45092Y-47497D01*
X45205Y-47469D01*
X45430Y-47469D01*
X45486Y-47497D01*
X45514Y-47525D01*
X45542Y-47581D01*
X45542Y-47694D01*
X45514Y-47750D01*
X45486Y-47778D01*
X45430Y-47806D01*
X45289Y-47806D01*
X45233Y-47778D01*
X45205Y-47750D01*
X45177Y-47694D01*
X45177Y-47581D01*
X45205Y-47525D01*
X45233Y-47497D01*
X45289Y-47469D01*
X45008Y-45106D02*
X44980Y-45134D01*
X44952Y-45191D01*
X44952Y-45331D01*
X44980Y-45388D01*
X45008Y-45416D01*
X45064Y-45444D01*
X45120Y-45444D01*
X45205Y-45416D01*
X45542Y-45078D01*
X45542Y-45444D01*
X45205Y-42857D02*
X45177Y-42800D01*
X45149Y-42772D01*
X45092Y-42744D01*
X45064Y-42744D01*
X45008Y-42772D01*
X44980Y-42800D01*
X44952Y-42857D01*
X44952Y-42969D01*
X44980Y-43025D01*
X45008Y-43053D01*
X45064Y-43082D01*
X45092Y-43082D01*
X45149Y-43053D01*
X45177Y-43025D01*
X45205Y-42969D01*
X45205Y-42857D01*
X45233Y-42800D01*
X45261Y-42772D01*
X45317Y-42744D01*
X45430Y-42744D01*
X45486Y-42772D01*
X45514Y-42800D01*
X45542Y-42857D01*
X45542Y-42969D01*
X45514Y-43025D01*
X45486Y-43053D01*
X45430Y-43082D01*
X45317Y-43082D01*
X45261Y-43053D01*
X45233Y-43025D01*
X45205Y-42969D01*
X41605Y-42407D02*
X41605Y-42519D01*
X41577Y-42575D01*
X41549Y-42604D01*
X41465Y-42660D01*
X41352Y-42688D01*
X41127Y-42688D01*
X41071Y-42660D01*
X41043Y-42632D01*
X41015Y-42575D01*
X41015Y-42463D01*
X41043Y-42407D01*
X41071Y-42379D01*
X41127Y-42350D01*
X41268Y-42350D01*
X41324Y-42379D01*
X41352Y-42407D01*
X41380Y-42463D01*
X41380Y-42575D01*
X41352Y-42632D01*
X41324Y-42660D01*
X41268Y-42688D01*
X45149Y-40663D02*
X45542Y-40663D01*
X44924Y-40523D02*
X45345Y-40382D01*
X45345Y-40748D01*
X41015Y-40298D02*
X41015Y-40016D01*
X41296Y-39988D01*
X41268Y-40016D01*
X41240Y-40073D01*
X41240Y-40213D01*
X41268Y-40269D01*
X41296Y-40298D01*
X41352Y-40326D01*
X41493Y-40326D01*
X41549Y-40298D01*
X41577Y-40269D01*
X41605Y-40213D01*
X41605Y-40073D01*
X41577Y-40016D01*
X41549Y-39988D01*
X52826Y-57845D02*
X52826Y-57902D01*
X52854Y-57958D01*
X52882Y-57986D01*
X52938Y-58014D01*
X53051Y-58042D01*
X53191Y-58042D01*
X53304Y-58014D01*
X53360Y-57986D01*
X53388Y-57958D01*
X53416Y-57902D01*
X53416Y-57845D01*
X53388Y-57789D01*
X53360Y-57761D01*
X53304Y-57733D01*
X53191Y-57705D01*
X53051Y-57705D01*
X52938Y-57733D01*
X52882Y-57761D01*
X52854Y-57789D01*
X52826Y-57845D01*
X44952Y-49971D02*
X44952Y-50028D01*
X44980Y-50084D01*
X45008Y-50112D01*
X45064Y-50140D01*
X45177Y-50168D01*
X45317Y-50168D01*
X45430Y-50140D01*
X45486Y-50112D01*
X45514Y-50084D01*
X45542Y-50028D01*
X45542Y-49971D01*
X45514Y-49915D01*
X45486Y-49887D01*
X45430Y-49859D01*
X45317Y-49831D01*
X45177Y-49831D01*
X45064Y-49859D01*
X45008Y-49887D01*
X44980Y-49915D01*
X44952Y-49971D01*
X49479Y-57649D02*
X49479Y-57311D01*
X49479Y-57480D02*
X48889Y-57480D01*
X48973Y-57424D01*
X49029Y-57367D01*
X49057Y-57311D01*
X41605Y-49775D02*
X41605Y-49437D01*
X41605Y-49606D02*
X41015Y-49606D01*
X41099Y-49550D01*
X41155Y-49493D01*
X41183Y-49437D01*
X46695Y-45908D02*
X46723Y-45992D01*
X46723Y-46133D01*
X46695Y-46189D01*
X46667Y-46217D01*
X46611Y-46245D01*
X46555Y-46245D01*
X46498Y-46217D01*
X46470Y-46189D01*
X46442Y-46133D01*
X46414Y-46020D01*
X46386Y-45964D01*
X46358Y-45936D01*
X46302Y-45908D01*
X46245Y-45908D01*
X46189Y-45936D01*
X46161Y-45964D01*
X46133Y-46020D01*
X46133Y-46161D01*
X46161Y-46245D01*
X46723Y-46498D02*
X46330Y-46498D01*
X46133Y-46498D02*
X46161Y-46470D01*
X46189Y-46498D01*
X46161Y-46526D01*
X46133Y-46498D01*
X46189Y-46498D01*
X46723Y-47033D02*
X46133Y-47033D01*
X46695Y-47033D02*
X46723Y-46976D01*
X46723Y-46864D01*
X46695Y-46808D01*
X46667Y-46780D01*
X46611Y-46751D01*
X46442Y-46751D01*
X46386Y-46780D01*
X46358Y-46808D01*
X46330Y-46864D01*
X46330Y-46976D01*
X46358Y-47033D01*
X46695Y-47539D02*
X46723Y-47483D01*
X46723Y-47370D01*
X46695Y-47314D01*
X46639Y-47286D01*
X46414Y-47286D01*
X46358Y-47314D01*
X46330Y-47370D01*
X46330Y-47483D01*
X46358Y-47539D01*
X46414Y-47567D01*
X46470Y-47567D01*
X46526Y-47286D01*
X46189Y-48242D02*
X46161Y-48270D01*
X46133Y-48326D01*
X46133Y-48467D01*
X46161Y-48523D01*
X46189Y-48551D01*
X46245Y-48579D01*
X46302Y-48579D01*
X46386Y-48551D01*
X46723Y-48214D01*
X46723Y-48579D01*
M02*
