G04 (created by PCBNEW (2013-mar-13)-testing) date Mon 01 Jul 2013 17:25:34 WST*
%MOIN*%
G04 Gerber Fmt 3.4, Leading zero omitted, Abs format*
%FSLAX34Y34*%
G01*
G70*
G90*
G04 APERTURE LIST*
%ADD10C,0.006000*%
%ADD11C,0.011811*%
G04 APERTURE END LIST*
G54D10*
G54D11*
X49114Y-56144D02*
X49198Y-56172D01*
X49339Y-56172D01*
X49395Y-56144D01*
X49423Y-56116D01*
X49451Y-56060D01*
X49451Y-56003D01*
X49423Y-55947D01*
X49395Y-55919D01*
X49339Y-55891D01*
X49226Y-55863D01*
X49170Y-55835D01*
X49142Y-55807D01*
X49114Y-55750D01*
X49114Y-55694D01*
X49142Y-55638D01*
X49170Y-55610D01*
X49226Y-55582D01*
X49367Y-55582D01*
X49451Y-55610D01*
X49620Y-55778D02*
X49845Y-55778D01*
X49704Y-55582D02*
X49704Y-56088D01*
X49732Y-56144D01*
X49789Y-56172D01*
X49845Y-56172D01*
X50267Y-56144D02*
X50210Y-56172D01*
X50098Y-56172D01*
X50042Y-56144D01*
X50014Y-56088D01*
X50014Y-55863D01*
X50042Y-55807D01*
X50098Y-55778D01*
X50210Y-55778D01*
X50267Y-55807D01*
X50295Y-55863D01*
X50295Y-55919D01*
X50014Y-55975D01*
X50548Y-55778D02*
X50548Y-56172D01*
X50548Y-55835D02*
X50576Y-55807D01*
X50632Y-55778D01*
X50717Y-55778D01*
X50773Y-55807D01*
X50801Y-55863D01*
X50801Y-56172D01*
X51335Y-56144D02*
X51279Y-56172D01*
X51167Y-56172D01*
X51110Y-56144D01*
X51082Y-56116D01*
X51054Y-56060D01*
X51054Y-55891D01*
X51082Y-55835D01*
X51110Y-55807D01*
X51167Y-55778D01*
X51279Y-55778D01*
X51335Y-55807D01*
X51588Y-56172D02*
X51588Y-55778D01*
X51588Y-55582D02*
X51560Y-55610D01*
X51588Y-55638D01*
X51616Y-55610D01*
X51588Y-55582D01*
X51588Y-55638D01*
X51954Y-56172D02*
X51898Y-56144D01*
X51870Y-56088D01*
X51870Y-55582D01*
X52938Y-55610D02*
X52882Y-55582D01*
X52798Y-55582D01*
X52713Y-55610D01*
X52657Y-55666D01*
X52629Y-55722D01*
X52601Y-55835D01*
X52601Y-55919D01*
X52629Y-56032D01*
X52657Y-56088D01*
X52713Y-56144D01*
X52798Y-56172D01*
X52854Y-56172D01*
X52938Y-56144D01*
X52966Y-56116D01*
X52966Y-55919D01*
X52854Y-55919D01*
X53473Y-55778D02*
X53473Y-56172D01*
X53219Y-55778D02*
X53219Y-56088D01*
X53248Y-56144D01*
X53304Y-56172D01*
X53388Y-56172D01*
X53444Y-56144D01*
X53473Y-56116D01*
X53754Y-56172D02*
X53754Y-55778D01*
X53754Y-55582D02*
X53726Y-55610D01*
X53754Y-55638D01*
X53782Y-55610D01*
X53754Y-55582D01*
X53754Y-55638D01*
X54288Y-56172D02*
X54288Y-55582D01*
X54288Y-56144D02*
X54232Y-56172D01*
X54119Y-56172D01*
X54063Y-56144D01*
X54035Y-56116D01*
X54007Y-56060D01*
X54007Y-55891D01*
X54035Y-55835D01*
X54063Y-55807D01*
X54119Y-55778D01*
X54232Y-55778D01*
X54288Y-55807D01*
X54794Y-56144D02*
X54738Y-56172D01*
X54625Y-56172D01*
X54569Y-56144D01*
X54541Y-56088D01*
X54541Y-55863D01*
X54569Y-55807D01*
X54625Y-55778D01*
X54738Y-55778D01*
X54794Y-55807D01*
X54822Y-55863D01*
X54822Y-55919D01*
X54541Y-55975D01*
X51124Y-56723D02*
X51265Y-57117D01*
X51406Y-56723D01*
X51940Y-57117D02*
X51602Y-57117D01*
X51771Y-57117D02*
X51771Y-56526D01*
X51715Y-56611D01*
X51659Y-56667D01*
X51602Y-56695D01*
X52193Y-57061D02*
X52221Y-57089D01*
X52193Y-57117D01*
X52165Y-57089D01*
X52193Y-57061D01*
X52193Y-57117D01*
X52784Y-57117D02*
X52446Y-57117D01*
X52615Y-57117D02*
X52615Y-56526D01*
X52559Y-56611D01*
X52502Y-56667D01*
X52446Y-56695D01*
X44572Y-57297D02*
X44544Y-57325D01*
X44460Y-57353D01*
X44403Y-57353D01*
X44319Y-57325D01*
X44263Y-57269D01*
X44235Y-57213D01*
X44206Y-57100D01*
X44206Y-57016D01*
X44235Y-56903D01*
X44263Y-56847D01*
X44319Y-56791D01*
X44403Y-56763D01*
X44460Y-56763D01*
X44544Y-56791D01*
X44572Y-56819D01*
X45163Y-57297D02*
X45134Y-57325D01*
X45050Y-57353D01*
X44994Y-57353D01*
X44910Y-57325D01*
X44853Y-57269D01*
X44825Y-57213D01*
X44797Y-57100D01*
X44797Y-57016D01*
X44825Y-56903D01*
X44853Y-56847D01*
X44910Y-56791D01*
X44994Y-56763D01*
X45050Y-56763D01*
X45134Y-56791D01*
X45163Y-56819D01*
X45416Y-57128D02*
X45866Y-57128D01*
X46344Y-57044D02*
X46428Y-57072D01*
X46456Y-57100D01*
X46484Y-57156D01*
X46484Y-57241D01*
X46456Y-57297D01*
X46428Y-57325D01*
X46372Y-57353D01*
X46147Y-57353D01*
X46147Y-56763D01*
X46344Y-56763D01*
X46400Y-56791D01*
X46428Y-56819D01*
X46456Y-56875D01*
X46456Y-56931D01*
X46428Y-56988D01*
X46400Y-57016D01*
X46344Y-57044D01*
X46147Y-57044D01*
X46850Y-57072D02*
X46850Y-57353D01*
X46653Y-56763D02*
X46850Y-57072D01*
X47047Y-56763D01*
X44178Y-57708D02*
X44544Y-57708D01*
X44347Y-57933D01*
X44431Y-57933D01*
X44488Y-57961D01*
X44516Y-57989D01*
X44544Y-58045D01*
X44544Y-58186D01*
X44516Y-58242D01*
X44488Y-58270D01*
X44431Y-58298D01*
X44263Y-58298D01*
X44206Y-58270D01*
X44178Y-58242D01*
X44797Y-58242D02*
X44825Y-58270D01*
X44797Y-58298D01*
X44769Y-58270D01*
X44797Y-58242D01*
X44797Y-58298D01*
X45191Y-57708D02*
X45247Y-57708D01*
X45303Y-57736D01*
X45331Y-57764D01*
X45359Y-57820D01*
X45388Y-57933D01*
X45388Y-58073D01*
X45359Y-58186D01*
X45331Y-58242D01*
X45303Y-58270D01*
X45247Y-58298D01*
X45191Y-58298D01*
X45134Y-58270D01*
X45106Y-58242D01*
X45078Y-58186D01*
X45050Y-58073D01*
X45050Y-57933D01*
X45078Y-57820D01*
X45106Y-57764D01*
X45134Y-57736D01*
X45191Y-57708D01*
X39904Y-54204D02*
X39904Y-53613D01*
X39904Y-53838D02*
X39960Y-53810D01*
X40073Y-53810D01*
X40129Y-53838D01*
X40157Y-53866D01*
X40185Y-53922D01*
X40185Y-54091D01*
X40157Y-54147D01*
X40129Y-54176D01*
X40073Y-54204D01*
X39960Y-54204D01*
X39904Y-54176D01*
X40438Y-54204D02*
X40438Y-53613D01*
X40691Y-54204D02*
X40691Y-53894D01*
X40663Y-53838D01*
X40607Y-53810D01*
X40523Y-53810D01*
X40466Y-53838D01*
X40438Y-53866D01*
X41226Y-54204D02*
X41226Y-53894D01*
X41197Y-53838D01*
X41141Y-53810D01*
X41029Y-53810D01*
X40973Y-53838D01*
X41226Y-54176D02*
X41169Y-54204D01*
X41029Y-54204D01*
X40973Y-54176D01*
X40944Y-54119D01*
X40944Y-54063D01*
X40973Y-54007D01*
X41029Y-53979D01*
X41169Y-53979D01*
X41226Y-53951D01*
X41507Y-54204D02*
X41507Y-53810D01*
X41507Y-53922D02*
X41535Y-53866D01*
X41563Y-53838D01*
X41619Y-53810D01*
X41676Y-53810D01*
X41872Y-54204D02*
X41872Y-53810D01*
X41872Y-53922D02*
X41901Y-53866D01*
X41929Y-53838D01*
X41985Y-53810D01*
X42041Y-53810D01*
X42238Y-54147D02*
X42266Y-54176D01*
X42238Y-54204D01*
X42210Y-54176D01*
X42238Y-54147D01*
X42238Y-54204D01*
X42519Y-54204D02*
X42519Y-53810D01*
X42519Y-53613D02*
X42491Y-53641D01*
X42519Y-53669D01*
X42547Y-53641D01*
X42519Y-53613D01*
X42519Y-53669D01*
X42772Y-54176D02*
X42829Y-54204D01*
X42941Y-54204D01*
X42997Y-54176D01*
X43025Y-54119D01*
X43025Y-54091D01*
X42997Y-54035D01*
X42941Y-54007D01*
X42857Y-54007D01*
X42800Y-53979D01*
X42772Y-53922D01*
X42772Y-53894D01*
X42800Y-53838D01*
X42857Y-53810D01*
X42941Y-53810D01*
X42997Y-53838D01*
X57199Y-52235D02*
X57199Y-52629D01*
X57058Y-52010D02*
X56917Y-52432D01*
X57283Y-52432D01*
X53037Y-54597D02*
X53149Y-54597D01*
X53205Y-54569D01*
X53233Y-54541D01*
X53290Y-54457D01*
X53318Y-54344D01*
X53318Y-54119D01*
X53290Y-54063D01*
X53262Y-54035D01*
X53205Y-54007D01*
X53093Y-54007D01*
X53037Y-54035D01*
X53008Y-54063D01*
X52980Y-54119D01*
X52980Y-54260D01*
X53008Y-54316D01*
X53037Y-54344D01*
X53093Y-54372D01*
X53205Y-54372D01*
X53262Y-54344D01*
X53290Y-54316D01*
X53318Y-54260D01*
X53290Y-51645D02*
X53008Y-51645D01*
X52980Y-51926D01*
X53008Y-51898D01*
X53065Y-51870D01*
X53205Y-51870D01*
X53262Y-51898D01*
X53290Y-51926D01*
X53318Y-51982D01*
X53318Y-52123D01*
X53290Y-52179D01*
X53262Y-52207D01*
X53205Y-52235D01*
X53065Y-52235D01*
X53008Y-52207D01*
X52980Y-52179D01*
X49015Y-54794D02*
X49409Y-54794D01*
X49156Y-55385D01*
X57199Y-55188D02*
X57086Y-55188D01*
X57030Y-55216D01*
X57002Y-55244D01*
X56946Y-55329D01*
X56917Y-55441D01*
X56917Y-55666D01*
X56946Y-55722D01*
X56974Y-55750D01*
X57030Y-55778D01*
X57142Y-55778D01*
X57199Y-55750D01*
X57227Y-55722D01*
X57255Y-55666D01*
X57255Y-55525D01*
X57227Y-55469D01*
X57199Y-55441D01*
X57142Y-55413D01*
X57030Y-55413D01*
X56974Y-55441D01*
X56946Y-55469D01*
X56917Y-55525D01*
X57030Y-50717D02*
X56974Y-50688D01*
X56946Y-50660D01*
X56917Y-50604D01*
X56917Y-50576D01*
X56946Y-50520D01*
X56974Y-50492D01*
X57030Y-50464D01*
X57142Y-50464D01*
X57199Y-50492D01*
X57227Y-50520D01*
X57255Y-50576D01*
X57255Y-50604D01*
X57227Y-50660D01*
X57199Y-50688D01*
X57142Y-50717D01*
X57030Y-50717D01*
X56974Y-50745D01*
X56946Y-50773D01*
X56917Y-50829D01*
X56917Y-50942D01*
X56946Y-50998D01*
X56974Y-51026D01*
X57030Y-51054D01*
X57142Y-51054D01*
X57199Y-51026D01*
X57227Y-50998D01*
X57255Y-50942D01*
X57255Y-50829D01*
X57227Y-50773D01*
X57199Y-50745D01*
X57142Y-50717D01*
X41141Y-46920D02*
X41535Y-46920D01*
X41282Y-47511D01*
X45388Y-47314D02*
X45275Y-47314D01*
X45219Y-47342D01*
X45191Y-47370D01*
X45134Y-47455D01*
X45106Y-47567D01*
X45106Y-47792D01*
X45134Y-47848D01*
X45163Y-47876D01*
X45219Y-47904D01*
X45331Y-47904D01*
X45388Y-47876D01*
X45416Y-47848D01*
X45444Y-47792D01*
X45444Y-47651D01*
X45416Y-47595D01*
X45388Y-47567D01*
X45331Y-47539D01*
X45219Y-47539D01*
X45163Y-47567D01*
X45134Y-47595D01*
X45106Y-47651D01*
X45219Y-42843D02*
X45163Y-42814D01*
X45134Y-42786D01*
X45106Y-42730D01*
X45106Y-42702D01*
X45134Y-42646D01*
X45163Y-42618D01*
X45219Y-42589D01*
X45331Y-42589D01*
X45388Y-42618D01*
X45416Y-42646D01*
X45444Y-42702D01*
X45444Y-42730D01*
X45416Y-42786D01*
X45388Y-42814D01*
X45331Y-42843D01*
X45219Y-42843D01*
X45163Y-42871D01*
X45134Y-42899D01*
X45106Y-42955D01*
X45106Y-43068D01*
X45134Y-43124D01*
X45163Y-43152D01*
X45219Y-43180D01*
X45331Y-43180D01*
X45388Y-43152D01*
X45416Y-43124D01*
X45444Y-43068D01*
X45444Y-42955D01*
X45416Y-42899D01*
X45388Y-42871D01*
X45331Y-42843D01*
X41226Y-42786D02*
X41338Y-42786D01*
X41394Y-42758D01*
X41422Y-42730D01*
X41479Y-42646D01*
X41507Y-42533D01*
X41507Y-42308D01*
X41479Y-42252D01*
X41451Y-42224D01*
X41394Y-42196D01*
X41282Y-42196D01*
X41226Y-42224D01*
X41197Y-42252D01*
X41169Y-42308D01*
X41169Y-42449D01*
X41197Y-42505D01*
X41226Y-42533D01*
X41282Y-42561D01*
X41394Y-42561D01*
X41451Y-42533D01*
X41479Y-42505D01*
X41507Y-42449D01*
X45388Y-40424D02*
X45388Y-40818D01*
X45247Y-40199D02*
X45106Y-40621D01*
X45472Y-40621D01*
X41479Y-39834D02*
X41197Y-39834D01*
X41169Y-40115D01*
X41197Y-40087D01*
X41254Y-40059D01*
X41394Y-40059D01*
X41451Y-40087D01*
X41479Y-40115D01*
X41507Y-40171D01*
X41507Y-40312D01*
X41479Y-40368D01*
X41451Y-40396D01*
X41394Y-40424D01*
X41254Y-40424D01*
X41197Y-40396D01*
X41169Y-40368D01*
X49015Y-52432D02*
X49381Y-52432D01*
X49184Y-52657D01*
X49268Y-52657D01*
X49325Y-52685D01*
X49353Y-52713D01*
X49381Y-52769D01*
X49381Y-52910D01*
X49353Y-52966D01*
X49325Y-52994D01*
X49268Y-53023D01*
X49100Y-53023D01*
X49043Y-52994D01*
X49015Y-52966D01*
X41141Y-44558D02*
X41507Y-44558D01*
X41310Y-44783D01*
X41394Y-44783D01*
X41451Y-44811D01*
X41479Y-44839D01*
X41507Y-44895D01*
X41507Y-45036D01*
X41479Y-45092D01*
X41451Y-45120D01*
X41394Y-45149D01*
X41226Y-45149D01*
X41169Y-45120D01*
X41141Y-45092D01*
X56917Y-56819D02*
X56946Y-56791D01*
X57002Y-56763D01*
X57142Y-56763D01*
X57199Y-56791D01*
X57227Y-56819D01*
X57255Y-56875D01*
X57255Y-56931D01*
X57227Y-57016D01*
X56889Y-57353D01*
X57255Y-57353D01*
X45106Y-45008D02*
X45134Y-44980D01*
X45191Y-44952D01*
X45331Y-44952D01*
X45388Y-44980D01*
X45416Y-45008D01*
X45444Y-45064D01*
X45444Y-45120D01*
X45416Y-45205D01*
X45078Y-45542D01*
X45444Y-45542D01*
X45247Y-49676D02*
X45303Y-49676D01*
X45359Y-49704D01*
X45388Y-49732D01*
X45416Y-49789D01*
X45444Y-49901D01*
X45444Y-50042D01*
X45416Y-50154D01*
X45388Y-50210D01*
X45359Y-50239D01*
X45303Y-50267D01*
X45247Y-50267D01*
X45191Y-50239D01*
X45163Y-50210D01*
X45134Y-50154D01*
X45106Y-50042D01*
X45106Y-49901D01*
X45134Y-49789D01*
X45163Y-49732D01*
X45191Y-49704D01*
X45247Y-49676D01*
X53121Y-57550D02*
X53177Y-57550D01*
X53233Y-57578D01*
X53262Y-57606D01*
X53290Y-57663D01*
X53318Y-57775D01*
X53318Y-57916D01*
X53290Y-58028D01*
X53262Y-58084D01*
X53233Y-58113D01*
X53177Y-58141D01*
X53121Y-58141D01*
X53065Y-58113D01*
X53037Y-58084D01*
X53008Y-58028D01*
X52980Y-57916D01*
X52980Y-57775D01*
X53008Y-57663D01*
X53037Y-57606D01*
X53065Y-57578D01*
X53121Y-57550D01*
X41507Y-49873D02*
X41169Y-49873D01*
X41338Y-49873D02*
X41338Y-49282D01*
X41282Y-49367D01*
X41226Y-49423D01*
X41169Y-49451D01*
X49381Y-57747D02*
X49043Y-57747D01*
X49212Y-57747D02*
X49212Y-57156D01*
X49156Y-57241D01*
X49100Y-57297D01*
X49043Y-57325D01*
X48270Y-51420D02*
X48354Y-51448D01*
X48495Y-51448D01*
X48551Y-51420D01*
X48579Y-51392D01*
X48607Y-51335D01*
X48607Y-51279D01*
X48579Y-51223D01*
X48551Y-51195D01*
X48495Y-51167D01*
X48383Y-51138D01*
X48326Y-51110D01*
X48298Y-51082D01*
X48270Y-51026D01*
X48270Y-50970D01*
X48298Y-50913D01*
X48326Y-50885D01*
X48383Y-50857D01*
X48523Y-50857D01*
X48607Y-50885D01*
X48861Y-51448D02*
X48861Y-51054D01*
X48861Y-50857D02*
X48832Y-50885D01*
X48861Y-50913D01*
X48889Y-50885D01*
X48861Y-50857D01*
X48861Y-50913D01*
X49395Y-51448D02*
X49395Y-50857D01*
X49395Y-51420D02*
X49339Y-51448D01*
X49226Y-51448D01*
X49170Y-51420D01*
X49142Y-51392D01*
X49114Y-51335D01*
X49114Y-51167D01*
X49142Y-51110D01*
X49170Y-51082D01*
X49226Y-51054D01*
X49339Y-51054D01*
X49395Y-51082D01*
X49901Y-51420D02*
X49845Y-51448D01*
X49732Y-51448D01*
X49676Y-51420D01*
X49648Y-51363D01*
X49648Y-51138D01*
X49676Y-51082D01*
X49732Y-51054D01*
X49845Y-51054D01*
X49901Y-51082D01*
X49929Y-51138D01*
X49929Y-51195D01*
X49648Y-51251D01*
X50942Y-51448D02*
X50604Y-51448D01*
X50773Y-51448D02*
X50773Y-50857D01*
X50717Y-50942D01*
X50660Y-50998D01*
X50604Y-51026D01*
G54D10*
G36*
X41964Y-54757D02*
X42074Y-55347D01*
X41390Y-55347D01*
X41500Y-54757D01*
X41964Y-54757D01*
X41964Y-54757D01*
G37*
G36*
X43263Y-55489D02*
X42924Y-55984D01*
X42440Y-55500D01*
X42935Y-55161D01*
X43263Y-55489D01*
X43263Y-55489D01*
G37*
G36*
X43667Y-56924D02*
X43077Y-57034D01*
X43077Y-56350D01*
X43667Y-56460D01*
X43667Y-56924D01*
X43667Y-56924D01*
G37*
G36*
X42935Y-58224D02*
X42440Y-57885D01*
X42924Y-57401D01*
X43263Y-57896D01*
X42935Y-58224D01*
X42935Y-58224D01*
G37*
G36*
X40528Y-55161D02*
X41023Y-55500D01*
X40540Y-55984D01*
X40200Y-55489D01*
X40528Y-55161D01*
X40528Y-55161D01*
G37*
G36*
X39797Y-56460D02*
X40387Y-56350D01*
X40387Y-57034D01*
X39797Y-56924D01*
X39797Y-56460D01*
X39797Y-56460D01*
G37*
G36*
X40200Y-57896D02*
X40540Y-57401D01*
X41023Y-57885D01*
X40528Y-58224D01*
X40200Y-57896D01*
X40200Y-57896D01*
G37*
G36*
X42026Y-55298D02*
X41863Y-56200D01*
X41600Y-56200D01*
X41437Y-55298D01*
X42026Y-55298D01*
X42026Y-55298D01*
G37*
G36*
X41471Y-55292D02*
X41666Y-56188D01*
X41423Y-56288D01*
X40927Y-55517D01*
X41471Y-55292D01*
X41471Y-55292D01*
G37*
G36*
X42536Y-55517D02*
X42041Y-56288D01*
X41798Y-56188D01*
X41992Y-55292D01*
X42536Y-55517D01*
X42536Y-55517D01*
G37*
G36*
X42925Y-55916D02*
X42172Y-56438D01*
X41986Y-56252D01*
X42508Y-55499D01*
X42925Y-55916D01*
X42925Y-55916D01*
G37*
G36*
X40955Y-55499D02*
X41478Y-56252D01*
X41292Y-56438D01*
X40539Y-55916D01*
X40955Y-55499D01*
X40955Y-55499D01*
G37*
G36*
X43132Y-56432D02*
X42236Y-56626D01*
X42136Y-56384D01*
X42907Y-55888D01*
X43132Y-56432D01*
X43132Y-56432D01*
G37*
G36*
X40557Y-55888D02*
X41328Y-56384D01*
X41227Y-56626D01*
X40331Y-56432D01*
X40557Y-55888D01*
X40557Y-55888D01*
G37*
G36*
X43126Y-56987D02*
X42224Y-56824D01*
X42224Y-56561D01*
X43126Y-56398D01*
X43126Y-56987D01*
X43126Y-56987D01*
G37*
G36*
X40338Y-56398D02*
X41240Y-56561D01*
X41240Y-56824D01*
X40338Y-56987D01*
X40338Y-56398D01*
X40338Y-56398D01*
G37*
G36*
X40331Y-56953D02*
X41227Y-56758D01*
X41328Y-57001D01*
X40557Y-57497D01*
X40331Y-56953D01*
X40331Y-56953D01*
G37*
G36*
X42907Y-57497D02*
X42136Y-57001D01*
X42236Y-56758D01*
X43132Y-56953D01*
X42907Y-57497D01*
X42907Y-57497D01*
G37*
G36*
X42508Y-57886D02*
X41986Y-57132D01*
X42172Y-56947D01*
X42925Y-57469D01*
X42508Y-57886D01*
X42508Y-57886D01*
G37*
G36*
X40539Y-57469D02*
X41292Y-56947D01*
X41478Y-57132D01*
X40955Y-57886D01*
X40539Y-57469D01*
X40539Y-57469D01*
G37*
G36*
X40836Y-57770D02*
X41405Y-57065D01*
X41514Y-57138D01*
X41081Y-57933D01*
X40836Y-57770D01*
X40836Y-57770D01*
G37*
G36*
X42382Y-57933D02*
X41950Y-57138D01*
X42059Y-57065D01*
X42628Y-57770D01*
X42382Y-57933D01*
X42382Y-57933D01*
G37*
M02*
