M48
;DRILL file {Pcbnew (2013-mar-13)-testing} date Sun 30 Jun 2013 20:15:13 WST
;FORMAT={-:-/ absolute / metric / decimal}
FMAT,2
METRIC,TZ
T1C2.550
%
G90
G05
M71
T1
X102.Y-102.
X102.Y-108.
X102.Y-114.
X102.Y-120.
X102.Y-126.
X112.Y-103.
X112.Y-109.
X112.Y-115.
X112.Y-121.
X112.Y-127.
X122.Y-134.
X122.Y-140.
X122.Y-146.
X132.Y-132.
X132.Y-138.
X132.Y-147.
X142.Y-129.
X142.Y-133.
X142.Y-141.
X142.Y-145.
T0
M30
