G04 (created by PCBNEW (2013-mar-13)-testing) date Fri 14 Jun 2013 17:44:45 WST*
%MOIN*%
G04 Gerber Fmt 3.4, Leading zero omitted, Abs format*
%FSLAX34Y34*%
G01*
G70*
G90*
G04 APERTURE LIST*
%ADD10C,0.006000*%
%ADD11C,0.011811*%
G04 APERTURE END LIST*
G54D10*
G54D11*
X56960Y-56411D02*
X57353Y-56411D01*
X56735Y-56271D02*
X57156Y-56130D01*
X57156Y-56496D01*
X57353Y-54218D02*
X57353Y-54330D01*
X57325Y-54386D01*
X57297Y-54415D01*
X57213Y-54471D01*
X57100Y-54499D01*
X56875Y-54499D01*
X56819Y-54471D01*
X56791Y-54443D01*
X56763Y-54386D01*
X56763Y-54274D01*
X56791Y-54218D01*
X56819Y-54190D01*
X56875Y-54161D01*
X57016Y-54161D01*
X57072Y-54190D01*
X57100Y-54218D01*
X57128Y-54274D01*
X57128Y-54386D01*
X57100Y-54443D01*
X57072Y-54471D01*
X57016Y-54499D01*
X56763Y-52109D02*
X56763Y-51827D01*
X57044Y-51799D01*
X57016Y-51827D01*
X56988Y-51884D01*
X56988Y-52024D01*
X57016Y-52080D01*
X57044Y-52109D01*
X57100Y-52137D01*
X57241Y-52137D01*
X57297Y-52109D01*
X57325Y-52080D01*
X57353Y-52024D01*
X57353Y-51884D01*
X57325Y-51827D01*
X57297Y-51799D01*
X52826Y-56496D02*
X52826Y-56861D01*
X53051Y-56664D01*
X53051Y-56749D01*
X53079Y-56805D01*
X53107Y-56833D01*
X53163Y-56861D01*
X53304Y-56861D01*
X53360Y-56833D01*
X53388Y-56805D01*
X53416Y-56749D01*
X53416Y-56580D01*
X53388Y-56524D01*
X53360Y-56496D01*
X52826Y-54921D02*
X52826Y-55314D01*
X53416Y-55061D01*
X52826Y-51687D02*
X52826Y-51574D01*
X52854Y-51518D01*
X52882Y-51490D01*
X52966Y-51434D01*
X53079Y-51406D01*
X53304Y-51406D01*
X53360Y-51434D01*
X53388Y-51462D01*
X53416Y-51518D01*
X53416Y-51631D01*
X53388Y-51687D01*
X53360Y-51715D01*
X53304Y-51743D01*
X53163Y-51743D01*
X53107Y-51715D01*
X53079Y-51687D01*
X53051Y-51631D01*
X53051Y-51518D01*
X53079Y-51462D01*
X53107Y-51434D01*
X53163Y-51406D01*
X49142Y-54668D02*
X49114Y-54611D01*
X49086Y-54583D01*
X49029Y-54555D01*
X49001Y-54555D01*
X48945Y-54583D01*
X48917Y-54611D01*
X48889Y-54668D01*
X48889Y-54780D01*
X48917Y-54836D01*
X48945Y-54865D01*
X49001Y-54893D01*
X49029Y-54893D01*
X49086Y-54865D01*
X49114Y-54836D01*
X49142Y-54780D01*
X49142Y-54668D01*
X49170Y-54611D01*
X49198Y-54583D01*
X49254Y-54555D01*
X49367Y-54555D01*
X49423Y-54583D01*
X49451Y-54611D01*
X49479Y-54668D01*
X49479Y-54780D01*
X49451Y-54836D01*
X49423Y-54865D01*
X49367Y-54893D01*
X49254Y-54893D01*
X49198Y-54865D01*
X49170Y-54836D01*
X49142Y-54780D01*
X48945Y-52980D02*
X48917Y-53008D01*
X48889Y-53065D01*
X48889Y-53205D01*
X48917Y-53262D01*
X48945Y-53290D01*
X49001Y-53318D01*
X49057Y-53318D01*
X49142Y-53290D01*
X49479Y-52952D01*
X49479Y-53318D01*
X44952Y-50984D02*
X44952Y-51377D01*
X45542Y-51124D01*
X44952Y-48622D02*
X44952Y-48987D01*
X45177Y-48790D01*
X45177Y-48875D01*
X45205Y-48931D01*
X45233Y-48959D01*
X45289Y-48987D01*
X45430Y-48987D01*
X45486Y-48959D01*
X45514Y-48931D01*
X45542Y-48875D01*
X45542Y-48706D01*
X45514Y-48650D01*
X45486Y-48622D01*
X41015Y-47750D02*
X41015Y-47637D01*
X41043Y-47581D01*
X41071Y-47553D01*
X41155Y-47497D01*
X41268Y-47469D01*
X41493Y-47469D01*
X41549Y-47497D01*
X41577Y-47525D01*
X41605Y-47581D01*
X41605Y-47694D01*
X41577Y-47750D01*
X41549Y-47778D01*
X41493Y-47806D01*
X41352Y-47806D01*
X41296Y-47778D01*
X41268Y-47750D01*
X41240Y-47694D01*
X41240Y-47581D01*
X41268Y-47525D01*
X41296Y-47497D01*
X41352Y-47469D01*
X41071Y-45106D02*
X41043Y-45134D01*
X41015Y-45191D01*
X41015Y-45331D01*
X41043Y-45388D01*
X41071Y-45416D01*
X41127Y-45444D01*
X41183Y-45444D01*
X41268Y-45416D01*
X41605Y-45078D01*
X41605Y-45444D01*
X45205Y-42857D02*
X45177Y-42800D01*
X45149Y-42772D01*
X45092Y-42744D01*
X45064Y-42744D01*
X45008Y-42772D01*
X44980Y-42800D01*
X44952Y-42857D01*
X44952Y-42969D01*
X44980Y-43025D01*
X45008Y-43053D01*
X45064Y-43082D01*
X45092Y-43082D01*
X45149Y-43053D01*
X45177Y-43025D01*
X45205Y-42969D01*
X45205Y-42857D01*
X45233Y-42800D01*
X45261Y-42772D01*
X45317Y-42744D01*
X45430Y-42744D01*
X45486Y-42772D01*
X45514Y-42800D01*
X45542Y-42857D01*
X45542Y-42969D01*
X45514Y-43025D01*
X45486Y-43053D01*
X45430Y-43082D01*
X45317Y-43082D01*
X45261Y-43053D01*
X45233Y-43025D01*
X45205Y-42969D01*
X41605Y-42407D02*
X41605Y-42519D01*
X41577Y-42575D01*
X41549Y-42604D01*
X41465Y-42660D01*
X41352Y-42688D01*
X41127Y-42688D01*
X41071Y-42660D01*
X41043Y-42632D01*
X41015Y-42575D01*
X41015Y-42463D01*
X41043Y-42407D01*
X41071Y-42379D01*
X41127Y-42350D01*
X41268Y-42350D01*
X41324Y-42379D01*
X41352Y-42407D01*
X41380Y-42463D01*
X41380Y-42575D01*
X41352Y-42632D01*
X41324Y-42660D01*
X41268Y-42688D01*
X45149Y-40663D02*
X45542Y-40663D01*
X44924Y-40523D02*
X45345Y-40382D01*
X45345Y-40748D01*
X41015Y-40298D02*
X41015Y-40016D01*
X41296Y-39988D01*
X41268Y-40016D01*
X41240Y-40073D01*
X41240Y-40213D01*
X41268Y-40269D01*
X41296Y-40298D01*
X41352Y-40326D01*
X41493Y-40326D01*
X41549Y-40298D01*
X41577Y-40269D01*
X41605Y-40213D01*
X41605Y-40073D01*
X41577Y-40016D01*
X41549Y-39988D01*
X56763Y-57845D02*
X56763Y-57902D01*
X56791Y-57958D01*
X56819Y-57986D01*
X56875Y-58014D01*
X56988Y-58042D01*
X57128Y-58042D01*
X57241Y-58014D01*
X57297Y-57986D01*
X57325Y-57958D01*
X57353Y-57902D01*
X57353Y-57845D01*
X57325Y-57789D01*
X57297Y-57761D01*
X57241Y-57733D01*
X57128Y-57705D01*
X56988Y-57705D01*
X56875Y-57733D01*
X56819Y-57761D01*
X56791Y-57789D01*
X56763Y-57845D01*
X41015Y-49971D02*
X41015Y-50028D01*
X41043Y-50084D01*
X41071Y-50112D01*
X41127Y-50140D01*
X41240Y-50168D01*
X41380Y-50168D01*
X41493Y-50140D01*
X41549Y-50112D01*
X41577Y-50084D01*
X41605Y-50028D01*
X41605Y-49971D01*
X41577Y-49915D01*
X41549Y-49887D01*
X41493Y-49859D01*
X41380Y-49831D01*
X41240Y-49831D01*
X41127Y-49859D01*
X41071Y-49887D01*
X41043Y-49915D01*
X41015Y-49971D01*
X49479Y-57649D02*
X49479Y-57311D01*
X49479Y-57480D02*
X48889Y-57480D01*
X48973Y-57424D01*
X49029Y-57367D01*
X49057Y-57311D01*
X45542Y-45838D02*
X45542Y-45500D01*
X45542Y-45669D02*
X44952Y-45669D01*
X45036Y-45613D01*
X45092Y-45556D01*
X45120Y-45500D01*
X46695Y-45908D02*
X46723Y-45992D01*
X46723Y-46133D01*
X46695Y-46189D01*
X46667Y-46217D01*
X46611Y-46245D01*
X46555Y-46245D01*
X46498Y-46217D01*
X46470Y-46189D01*
X46442Y-46133D01*
X46414Y-46020D01*
X46386Y-45964D01*
X46358Y-45936D01*
X46302Y-45908D01*
X46245Y-45908D01*
X46189Y-45936D01*
X46161Y-45964D01*
X46133Y-46020D01*
X46133Y-46161D01*
X46161Y-46245D01*
X46723Y-46498D02*
X46330Y-46498D01*
X46133Y-46498D02*
X46161Y-46470D01*
X46189Y-46498D01*
X46161Y-46526D01*
X46133Y-46498D01*
X46189Y-46498D01*
X46723Y-47033D02*
X46133Y-47033D01*
X46695Y-47033D02*
X46723Y-46976D01*
X46723Y-46864D01*
X46695Y-46808D01*
X46667Y-46780D01*
X46611Y-46751D01*
X46442Y-46751D01*
X46386Y-46780D01*
X46358Y-46808D01*
X46330Y-46864D01*
X46330Y-46976D01*
X46358Y-47033D01*
X46695Y-47539D02*
X46723Y-47483D01*
X46723Y-47370D01*
X46695Y-47314D01*
X46639Y-47286D01*
X46414Y-47286D01*
X46358Y-47314D01*
X46330Y-47370D01*
X46330Y-47483D01*
X46358Y-47539D01*
X46414Y-47567D01*
X46470Y-47567D01*
X46526Y-47286D01*
X46189Y-48242D02*
X46161Y-48270D01*
X46133Y-48326D01*
X46133Y-48467D01*
X46161Y-48523D01*
X46189Y-48551D01*
X46245Y-48579D01*
X46302Y-48579D01*
X46386Y-48551D01*
X46723Y-48214D01*
X46723Y-48579D01*
M02*
