G04 (created by PCBNEW (2013-mar-13)-testing) date Fri 14 Jun 2013 17:44:45 WST*
%MOIN*%
G04 Gerber Fmt 3.4, Leading zero omitted, Abs format*
%FSLAX34Y34*%
G01*
G70*
G90*
G04 APERTURE LIST*
%ADD10C,0.006000*%
%ADD11C,0.098425*%
G04 APERTURE END LIST*
G54D10*
G54D11*
X40157Y-40157D03*
X44094Y-40551D03*
X44094Y-48818D03*
X40157Y-45275D03*
X44094Y-45669D03*
X40157Y-50000D03*
X40157Y-42519D03*
X44094Y-42913D03*
X44094Y-51181D03*
X40157Y-47637D03*
X55905Y-57874D03*
X51968Y-56692D03*
X51968Y-55118D03*
X48031Y-57480D03*
X48031Y-53149D03*
X51968Y-51574D03*
X48031Y-54724D03*
X55905Y-54330D03*
X55905Y-51968D03*
X55905Y-56299D03*
G54D10*
G36*
X43539Y-54757D02*
X43649Y-55347D01*
X42965Y-55347D01*
X43075Y-54757D01*
X43539Y-54757D01*
X43539Y-54757D01*
G37*
G36*
X44838Y-55489D02*
X44499Y-55984D01*
X44015Y-55500D01*
X44510Y-55161D01*
X44838Y-55489D01*
X44838Y-55489D01*
G37*
G36*
X45242Y-56924D02*
X44652Y-57034D01*
X44652Y-56350D01*
X45242Y-56460D01*
X45242Y-56924D01*
X45242Y-56924D01*
G37*
G36*
X44510Y-58224D02*
X44015Y-57885D01*
X44499Y-57401D01*
X44838Y-57896D01*
X44510Y-58224D01*
X44510Y-58224D01*
G37*
G36*
X42103Y-55161D02*
X42598Y-55500D01*
X42114Y-55984D01*
X41775Y-55489D01*
X42103Y-55161D01*
X42103Y-55161D01*
G37*
G36*
X41372Y-56460D02*
X41962Y-56350D01*
X41962Y-57034D01*
X41372Y-56924D01*
X41372Y-56460D01*
X41372Y-56460D01*
G37*
G36*
X41775Y-57896D02*
X42114Y-57401D01*
X42598Y-57885D01*
X42103Y-58224D01*
X41775Y-57896D01*
X41775Y-57896D01*
G37*
G36*
X43601Y-55298D02*
X43438Y-56200D01*
X43175Y-56200D01*
X43012Y-55298D01*
X43601Y-55298D01*
X43601Y-55298D01*
G37*
G36*
X43046Y-55292D02*
X43241Y-56188D01*
X42998Y-56288D01*
X42502Y-55517D01*
X43046Y-55292D01*
X43046Y-55292D01*
G37*
G36*
X44111Y-55517D02*
X43615Y-56288D01*
X43373Y-56188D01*
X43567Y-55292D01*
X44111Y-55517D01*
X44111Y-55517D01*
G37*
G36*
X44500Y-55916D02*
X43747Y-56438D01*
X43561Y-56252D01*
X44083Y-55499D01*
X44500Y-55916D01*
X44500Y-55916D01*
G37*
G36*
X42530Y-55499D02*
X43052Y-56252D01*
X42867Y-56438D01*
X42113Y-55916D01*
X42530Y-55499D01*
X42530Y-55499D01*
G37*
G36*
X44707Y-56432D02*
X43811Y-56626D01*
X43711Y-56384D01*
X44482Y-55888D01*
X44707Y-56432D01*
X44707Y-56432D01*
G37*
G36*
X42132Y-55888D02*
X42903Y-56384D01*
X42802Y-56626D01*
X41906Y-56432D01*
X42132Y-55888D01*
X42132Y-55888D01*
G37*
G36*
X44701Y-56987D02*
X43799Y-56824D01*
X43799Y-56561D01*
X44701Y-56398D01*
X44701Y-56987D01*
X44701Y-56987D01*
G37*
G36*
X41913Y-56398D02*
X42815Y-56561D01*
X42815Y-56824D01*
X41913Y-56987D01*
X41913Y-56398D01*
X41913Y-56398D01*
G37*
G36*
X41906Y-56953D02*
X42802Y-56758D01*
X42903Y-57001D01*
X42132Y-57497D01*
X41906Y-56953D01*
X41906Y-56953D01*
G37*
G36*
X44482Y-57497D02*
X43711Y-57001D01*
X43811Y-56758D01*
X44707Y-56953D01*
X44482Y-57497D01*
X44482Y-57497D01*
G37*
G36*
X44083Y-57886D02*
X43561Y-57132D01*
X43747Y-56947D01*
X44500Y-57469D01*
X44083Y-57886D01*
X44083Y-57886D01*
G37*
G36*
X42113Y-57469D02*
X42867Y-56947D01*
X43052Y-57132D01*
X42530Y-57886D01*
X42113Y-57469D01*
X42113Y-57469D01*
G37*
G36*
X42411Y-57770D02*
X42979Y-57065D01*
X43088Y-57138D01*
X42656Y-57933D01*
X42411Y-57770D01*
X42411Y-57770D01*
G37*
G36*
X43957Y-57933D02*
X43525Y-57138D01*
X43634Y-57065D01*
X44203Y-57770D01*
X43957Y-57933D01*
X43957Y-57933D01*
G37*
M02*
