G04 (created by PCBNEW (2013-mar-13)-testing) date Mon 01 Jul 2013 17:25:34 WST*
%MOIN*%
G04 Gerber Fmt 3.4, Leading zero omitted, Abs format*
%FSLAX34Y34*%
G01*
G70*
G90*
G04 APERTURE LIST*
%ADD10C,0.006000*%
%ADD11C,0.100394*%
%ADD12O,0.100394X0.456693*%
G04 APERTURE END LIST*
G54D10*
G54D11*
X40157Y-40157D03*
X44094Y-40551D03*
X40157Y-44881D03*
X44094Y-45275D03*
X40157Y-49606D03*
X44094Y-50000D03*
X40157Y-42519D03*
X44094Y-42913D03*
X40157Y-47244D03*
X44094Y-47637D03*
X51968Y-57874D03*
X48031Y-52755D03*
X48031Y-55118D03*
X48031Y-57480D03*
X55905Y-57086D03*
X55905Y-55511D03*
X55905Y-50787D03*
X51968Y-54330D03*
X51968Y-51968D03*
X55905Y-52362D03*
G54D10*
G36*
X41964Y-54757D02*
X42074Y-55347D01*
X41390Y-55347D01*
X41500Y-54757D01*
X41964Y-54757D01*
X41964Y-54757D01*
G37*
G36*
X43263Y-55489D02*
X42924Y-55984D01*
X42440Y-55500D01*
X42935Y-55161D01*
X43263Y-55489D01*
X43263Y-55489D01*
G37*
G36*
X43667Y-56924D02*
X43077Y-57034D01*
X43077Y-56350D01*
X43667Y-56460D01*
X43667Y-56924D01*
X43667Y-56924D01*
G37*
G36*
X42935Y-58224D02*
X42440Y-57885D01*
X42924Y-57401D01*
X43263Y-57896D01*
X42935Y-58224D01*
X42935Y-58224D01*
G37*
G36*
X40528Y-55161D02*
X41023Y-55500D01*
X40540Y-55984D01*
X40200Y-55489D01*
X40528Y-55161D01*
X40528Y-55161D01*
G37*
G36*
X39797Y-56460D02*
X40387Y-56350D01*
X40387Y-57034D01*
X39797Y-56924D01*
X39797Y-56460D01*
X39797Y-56460D01*
G37*
G36*
X40200Y-57896D02*
X40540Y-57401D01*
X41023Y-57885D01*
X40528Y-58224D01*
X40200Y-57896D01*
X40200Y-57896D01*
G37*
G36*
X42026Y-55298D02*
X41863Y-56200D01*
X41600Y-56200D01*
X41437Y-55298D01*
X42026Y-55298D01*
X42026Y-55298D01*
G37*
G36*
X41471Y-55292D02*
X41666Y-56188D01*
X41423Y-56288D01*
X40927Y-55517D01*
X41471Y-55292D01*
X41471Y-55292D01*
G37*
G36*
X42536Y-55517D02*
X42041Y-56288D01*
X41798Y-56188D01*
X41992Y-55292D01*
X42536Y-55517D01*
X42536Y-55517D01*
G37*
G36*
X42925Y-55916D02*
X42172Y-56438D01*
X41986Y-56252D01*
X42508Y-55499D01*
X42925Y-55916D01*
X42925Y-55916D01*
G37*
G36*
X40955Y-55499D02*
X41478Y-56252D01*
X41292Y-56438D01*
X40539Y-55916D01*
X40955Y-55499D01*
X40955Y-55499D01*
G37*
G36*
X43132Y-56432D02*
X42236Y-56626D01*
X42136Y-56384D01*
X42907Y-55888D01*
X43132Y-56432D01*
X43132Y-56432D01*
G37*
G36*
X40557Y-55888D02*
X41328Y-56384D01*
X41227Y-56626D01*
X40331Y-56432D01*
X40557Y-55888D01*
X40557Y-55888D01*
G37*
G36*
X43126Y-56987D02*
X42224Y-56824D01*
X42224Y-56561D01*
X43126Y-56398D01*
X43126Y-56987D01*
X43126Y-56987D01*
G37*
G36*
X40338Y-56398D02*
X41240Y-56561D01*
X41240Y-56824D01*
X40338Y-56987D01*
X40338Y-56398D01*
X40338Y-56398D01*
G37*
G36*
X40331Y-56953D02*
X41227Y-56758D01*
X41328Y-57001D01*
X40557Y-57497D01*
X40331Y-56953D01*
X40331Y-56953D01*
G37*
G36*
X42907Y-57497D02*
X42136Y-57001D01*
X42236Y-56758D01*
X43132Y-56953D01*
X42907Y-57497D01*
X42907Y-57497D01*
G37*
G36*
X42508Y-57886D02*
X41986Y-57132D01*
X42172Y-56947D01*
X42925Y-57469D01*
X42508Y-57886D01*
X42508Y-57886D01*
G37*
G36*
X40539Y-57469D02*
X41292Y-56947D01*
X41478Y-57132D01*
X40955Y-57886D01*
X40539Y-57469D01*
X40539Y-57469D01*
G37*
G36*
X40836Y-57770D02*
X41405Y-57065D01*
X41514Y-57138D01*
X41081Y-57933D01*
X40836Y-57770D01*
X40836Y-57770D01*
G37*
G36*
X42382Y-57933D02*
X41950Y-57138D01*
X42059Y-57065D01*
X42628Y-57770D01*
X42382Y-57933D01*
X42382Y-57933D01*
G37*
G54D12*
X44094Y-53740D03*
M02*
